<svg xmlns="http://www.w3.org/2000/svg" width="569" height="569"><path fill="#fefefe" d="M284 95h2q43 0 82 19l2 1q13 6 25 15 3 3 8 3l4-2q8-4 18-1 8 3 12 10l2 3q3 8 0 17l-3 5v4l1 2 2 3 3 4q43 68 28 147c-7 34-24 68-50 92l-2 3-3 2-2 2c-27 28-68 44-106 49l-4 1a188 188 0 0 1-151-54l-2-2-3-3-2-2c-22-21-36-51-44-80l-1-2a189 189 0 0 1 34-162l-4-8q-3-9 0-18 5-9 16-14 10-2 19 4h4l7-4q29-21 64-29l3-1q20-4 41-4M176 314q-6 9-4 19 3 10 12 15 9 4 18 1 9-4 13-13 3-8 0-17-6-10-16-13-14-2-23 8m182 0q-6 9-4 19 3 10 12 15 9 4 18 1 9-4 13-13 3-8 0-17-6-10-16-13-14-2-23 8m-91 17q0 8 5 14l6 2c0 16 0 16-2 20l-7 5-10 9q-2 4 1 7 2 3 5 2 5 0 9-5l10-9 9 6c5 6 5 6 13 8q3 0 5-4v-5l-9-9-8-6q-4-5-3-11v-8l2-1q6-2 8-7l1-8q-5-4-11-3h-16q-4 0-8 3"/><path fill="#050202" d="M271 4h3q33-1 64 4l3 1q35 7 66 22l2 1q29 14 53 34l2 1a248 248 0 0 1 43 45c35 44 58 102 58 159v3q1 33-4 64l-1 3q-7 35-22 66l-1 2q-14 29-34 53l-1 2a248 248 0 0 1-45 43c-44 35-102 58-159 58h-3q-33 1-64-4l-3-1q-35-7-66-22l-2-1q-29-14-53-34l-2-1a248 248 0 0 1-43-45C27 413 4 355 4 298v-3q-1-33 4-64l1-3q7-35 22-66l1-2q14-29 34-53l1-2a248 248 0 0 1 45-43C156 27 214 4 271 4m-30 19 11 58h2l40-1h2l21 1 9-44v-3l1-4 1-3v-4q-43-7-87 0m103 4-4 16-1 3-6 39h2q24 7 47 19l10 5 25-37 2-2 5-10c-22-16-53-29-80-33m-129 2-3 1c-22 6-49 14-66 29q-1 5 3 8l1 3 2 3 2 3 14 21 2 3 2 3 2 2 4 4 3-2q26-15 55-22l-3-22-7-35q-5-1-11 1m-92 46-2 1a271 271 0 0 0-49 51q-2 2-2 5l4 3 2 2 3 1 3 2 21 14 2 2 3 1 2 2 4 1v-3q-1-18 9-31l11-8 2-1q12-4 25-3l-24-37-1-2-4-5q-5 0-9 5m314-5-3 4-2 2-1 3-2 3-14 21-2 2-1 3-2 2-1 4h2q18-1 32 9 12 12 12 28v10l44-29-5-10-2-2-15-17-2-2-33-29q-2-2-5-2m-268 64-8-4q-9-3-18 0-9 5-14 16-2 10 4 19v4l-4 7q-28 39-33 86v3c-5 47 7 96 37 134l2 3 21 22c30 32 77 49 121 50q32 2 64-8l6-2q29-10 52-28l3-2 15-14 7-7c32-30 49-78 50-121q2-51-22-97l-1-2q-6-12-15-21v-6l1-2q5-8 3-18-4-11-14-16-8-3-17 0l-5 3h-4l-7-4q-35-24-78-32l-3-1-27-1h-2c-41 0-82 13-114 39M60 145c-16 22-29 53-33 80l51 11h7l1-3q7-28 22-53l1-4-6-4-17-11-2-1-13-9-3-2zm445 1-2 1-3 2-3 2-2 2-21 14-3 2-3 2-2 1-6 6 2 3q16 26 22 55l22-3 3-1 21-4 3-1h3l2-1 4-1q-7-37-27-72l-2-2c-3-5-3-5-8-5M23 241q-6 44 0 87l58-11v-3l-1-41v-2l1-19-46-9-4-1-3-1zm514 1-4 1h-3l-4 1-38 8v2l1 19v3l-1 41 42 9h3l4 1 2 1h7l1-6v-3q3-18 2-37v-2l-3-39zM66 335l-3 1-35 7c-5 16 14 48 21 62l6 12 1 2 3 4q5 1 8-3l3-1 3-2 3-2 21-14 3-2 3-2 2-2 4-4-2-3q-15-27-22-55zm418-2v2q-8 30-24 56 6 7 14 11l2 2 19 12 3 2q5 4 11 6c16-23 29-53 33-80l-42-9h-3l-4-1-2-1zm-372 76-3 1-3 2-23 16-3 2-3 2-2 1-6 6q24 32 55 56l3 2q2 3 5 2l3-4 2-3 2-2 1-3 15-22 1-3 2-2 2-3 3-7-2-2q-24-16-40-40l-2-2q-3 0-7 3m338-3-2 2q-17 25-42 42l4 8 1 3 2 3 2 3 14 21 2 3 2 3 1 2q2 3 6 3l7-5 1-1a298 298 0 0 0 49-51q3-2 2-5l-4-3-3-2-2-2-3-1-22-15-3-1-2-2-3-2zm-274 54-4 6-17 27-2 2-8 12q2 5 6 7l3 1 3 2 3 1c31 17 31 17 65 24l11-58-3-1q-28-7-53-22zm215 0-3 2q-27 15-55 22l3 22 1 3 4 21 1 3v3l1 2 1 4q39-7 73-28l2-1 4-3q1-5-3-8l-1-3-2-3-16-24-2-3-2-3-2-2zm-139 28-9 45-1 4-1 2v7q44 7 87 0l-3-21-1-3-7-34h-3l-41 1h-2z"/><path fill="#41b9ca" d="m226 28 8 38v4q2 7 2 15l-3 1a230 230 0 0 0-56 23l-20-30-12-17 6-7 3-1 3-2 3-1c52-28 52-28 66-23"/><path fill="#ddd" d="M252 488h2l19 1h2l42-1 10 49 1 2v7q-43 7-87 0l3-21 1-3z"/><path fill="#dedede" d="M546 241q8 44 0 87l-21-3-3-1-34-7v-2l1-42v-2l-1-19 45-9 4-1 2-1z"/><path fill="#41b9ca" d="m85 333 1 2q8 30 23 57l-30 21-17 11q-5-2-7-7l-1-2-2-4-2-3a282 282 0 0 1-23-64l19-5zM344 27q39 7 73 28l2 1q5 3 5 6l-2 4-2 2-1 3-2 2-6 8-19 28-3-1q-26-15-56-23l2-19 1-3 5-24v-3l1-3 1-3zM176 460l10 5q24 13 50 19l-3 22-1 3-4 21-1 3v3l-1 2-1 4-24-6-3-1q-24-8-44-20l-2-1q-5-2-7-7l1-2 23-34 2-3 2-2z"/><path fill="#dedede" d="m120 407 4 5q16 23 39 38l-5 10-2 2-2 3-22 34q-6-1-10-6l-2-1-18-16-2-2q-18-17-31-36l39-27 2-2 2-1 2-1z"/><path fill="#d9d8d8" d="m450 406 10 5 2 2 3 2 3 1 31 21q-1 6-6 11l-1 1-16 18-2 2q-14 15-30 27l-2 2-4 1-5-5-2-3-2-3-16-24-2-3-5-11 2-2q25-17 42-42"/><path fill="#41b9ca" d="m507 145 7 6 1 3 2 3 1 3q17 30 24 65l-58 11-1-3q-8-30-23-55 6-7 15-12l2-1zM391 460q7 6 12 15l1 2 20 30q-2 5-7 7l-2 1-4 2-3 2a282 282 0 0 1-64 23l-11-58h2q30-9 56-24"/><path fill="#dedede" d="m23 241 36 7 22 4v2l-1 34 1 29-44 9h-3l-4 1-3 1h-4q-6-43 0-87"/><path fill="#41b9ca" d="m60 145 9 5 3 1 3 2 34 23-5 10q-13 24-19 50l-21-3-3-1-34-7 6-24 1-3c14-41 14-41 26-53"/><path fill="#41bacb" d="m484 333 21 3 3 1 34 7q-2 14-8 28l-1 3q-7 22-19 42l-1 2q-3 5-6 5l-4-2-2-2-3-1-2-2-8-6-28-19 1-2q15-27 23-57"/><path fill="#dfdede" d="m328 23-11 58h-2l-40-1h-2l-21 1-9-44v-3l-1-4-1-3v-4q44-7 87 0"/><path fill="#ddd" d="M437 70q6 2 11 6l1 1 18 16 2 2q15 14 27 30l2 2 1 4-5 5-3 2-2 2-3 1-30 20-1-10q0-14-10-26-13-11-30-11h-6l8-14 2-3zm-306 0 5 5 2 3 2 2 1 3 20 30-10 1q-14 1-26 10l-8 12-1 2q-3 11-2 22l-14-8-3-2-27-18q2-6 6-10l1-2 16-18 2-2q14-15 30-27l2-2z"/><path fill="#070303" d="M386 308q8 5 12 14 2 12-5 21-8 7-20 7-9 0-15-8-6-9-4-20 4-10 13-15 10-3 19 1m-182 0q8 5 12 14 2 12-5 21-8 7-20 7-9 0-15-8-6-9-4-20 4-10 13-15 10-3 19 1"/><path fill="#0a0606" d="M278 328h16q4 0 8 3 1 8-5 14l-6 2c-1 10-1 10 3 20l8 6 5 4 2 2 2 2-1 7q-3 3-8 2l-5-5-11-9-9 6c-8 8-8 8-12 8q-3 1-5-2t-1-7l7-7 2-2 9-7 1-4v-14l-2-1q-5-2-8-7l-1-8q5-4 11-3"/></svg>